<?xml version="1.0" standalone="no"?>
<!DOCTYPE svg PUBLIC "-//W3C//DTD SVG 20010904//EN"
 "http://www.w3.org/TR/2001/REC-SVG-20010904/DTD/svg10.dtd">
<svg version="1.0" xmlns="http://www.w3.org/2000/svg"
 width="26.000000pt" height="28.000000pt" viewBox="0 0 26.000000 28.000000"
 preserveAspectRatio="xMidYMid meet">

<g transform="translate(0.000000,28.000000) scale(0.100000,-0.100000)"
fill="#000000" stroke="none">
<path d="M71 252 c-37 -20 -71 -73 -71 -110 0 -50 56 -132 91 -132 19 0 8 21
-15 29 -13 5 -26 17 -29 25 -7 17 8 22 18 6 7 -12 35 -14 35 -2 0 4 -10 12
-22 17 -20 9 -23 17 -22 68 1 32 3 59 5 61 2 2 25 1 51 -3 25 -4 54 -3 63 2
23 13 26 7 28 -59 2 -52 0 -60 -20 -69 -17 -7 -23 -18 -23 -42 0 -39 8 -41 45
-11 30 23 55 74 55 110 0 60 -69 128 -130 128 -14 0 -41 -8 -59 -18z"/>
</g>
</svg>
