<?xml version="1.0" standalone="no"?>
<!DOCTYPE svg PUBLIC "-//W3C//DTD SVG 20010904//EN"
 "http://www.w3.org/TR/2001/REC-SVG-20010904/DTD/svg10.dtd">
<svg version="1.0" xmlns="http://www.w3.org/2000/svg"
 width="24.000000pt" height="26.000000pt" viewBox="0 0 24.000000 26.000000"
 preserveAspectRatio="xMidYMid meet">

<g transform="translate(0.000000,26.000000) scale(0.100000,-0.100000)"
fill="#000000" stroke="none">
<path d="M3 234 c-6 -17 14 -36 32 -31 6 2 11 13 13 25 3 17 -2 22 -18 22 -11
0 -23 -7 -27 -16z"/>
<path d="M0 90 c0 -79 0 -80 25 -80 25 0 25 1 25 80 0 79 0 80 -25 80 -25 0
-25 -1 -25 -80z"/>
<path d="M80 90 c0 -79 0 -80 25 -80 23 0 25 3 25 49 0 56 19 82 45 61 10 -8
15 -30 15 -61 0 -46 2 -49 25 -49 24 0 25 3 25 58 0 49 -4 62 -25 82 -22 21
-28 22 -52 11 -19 -9 -29 -9 -31 -2 -2 6 -15 11 -28 11 -23 0 -24 -2 -24 -80z"/>
</g>
</svg>
